<svg xmlns="http://www.w3.org/2000/svg" xmlns:xlink="http://www.w3.org/1999/xlink" width="548.058" height="883.833" viewBox="0 0 548.058 883.833">
  <defs>
    <linearGradient id="linear-gradient" x1="15.184" y1="2.296" x2="15.184" gradientUnits="objectBoundingBox">
      <stop offset="0.05" stop-color="#b33936"/>
      <stop offset="0.98" stop-color="#892c36"/>
    </linearGradient>
    <linearGradient id="linear-gradient-2" x1="25.725" y1="1" x2="25.725" gradientUnits="objectBoundingBox">
      <stop offset="0.03" stop-color="#ffc9ac"/>
      <stop offset="1" stop-color="#ff8e86"/>
    </linearGradient>
    <linearGradient id="linear-gradient-3" x1="32.842" y1="0.982" x2="33.1" gradientUnits="objectBoundingBox">
      <stop offset="0.02" stop-color="#ffae78"/>
      <stop offset="1" stop-color="#ff7763"/>
    </linearGradient>
    <linearGradient id="linear-gradient-4" x1="98.5" y1="11.218" x2="98.745" y2="10.238" xlink:href="#linear-gradient-3"/>
    <radialGradient id="radial-gradient" cx="0.494" cy="0.218" r="0.588" gradientTransform="matrix(-1.836, 0, 0, 1, 42.764, 0)" gradientUnits="objectBoundingBox">
      <stop offset="0.02" stop-color="#3c4561"/>
      <stop offset="1" stop-color="#462455"/>
    </radialGradient>
    <linearGradient id="linear-gradient-5" x1="114.915" y1="0.499" x2="115.915" y2="0.499" gradientUnits="objectBoundingBox">
      <stop offset="0" stop-color="#ff7763"/>
      <stop offset="0.98" stop-color="#ffae78"/>
    </linearGradient>
    <linearGradient id="linear-gradient-6" x1="303.165" y1="0.497" x2="304.165" y2="0.497" xlink:href="#linear-gradient-5"/>
    <linearGradient id="linear-gradient-7" x1="18.799" y1="0.499" x2="19.799" y2="0.499" gradientUnits="objectBoundingBox">
      <stop offset="0" stop-color="#ff8e86"/>
      <stop offset="0.97" stop-color="#ffc9ac"/>
    </linearGradient>
    <linearGradient id="linear-gradient-8" x1="31.536" y1="1" x2="31.536" gradientUnits="objectBoundingBox">
      <stop offset="0.03" stop-color="#f72c33"/>
      <stop offset="1" stop-color="#ff1e2e"/>
    </linearGradient>
    <linearGradient id="linear-gradient-9" x1="33.753" y1="1" x2="33.753" gradientUnits="objectBoundingBox">
      <stop offset="0.03" stop-color="#ffc9ac"/>
      <stop offset="1" stop-color="#fff5c7"/>
    </linearGradient>
    <linearGradient id="linear-gradient-10" x1="48.249" y1="1" x2="48.249" y2="0" xlink:href="#linear-gradient-8"/>
    <linearGradient id="linear-gradient-11" x1="21.607" y1="1" x2="21.607" y2="0" xlink:href="#linear-gradient-9"/>
    <linearGradient id="linear-gradient-12" x1="160.587" y1="0.999" x2="160.587" gradientUnits="objectBoundingBox">
      <stop offset="0" stop-color="#ffeadb"/>
      <stop offset="0.99" stop-color="#d3c2e5"/>
    </linearGradient>
    <linearGradient id="linear-gradient-13" x1="258.642" y1="1" x2="258.642" y2="0" xlink:href="#linear-gradient-12"/>
    <linearGradient id="linear-gradient-14" x1="97.82" y1="-52.094" x2="98.777" y2="-52.094" gradientUnits="objectBoundingBox">
      <stop offset="0" stop-color="#ffeadb"/>
      <stop offset="0.99" stop-color="#c245ba"/>
    </linearGradient>
    <linearGradient id="linear-gradient-15" x1="748.28" y1="-60.423" x2="749.625" y2="-60.423" xlink:href="#linear-gradient-14"/>
    <linearGradient id="linear-gradient-16" x1="138.813" y1="-246.717" x2="139.788" y2="-246.717" xlink:href="#linear-gradient-14"/>
    <linearGradient id="linear-gradient-17" x1="120.123" y1="1" x2="120.123" y2="0" xlink:href="#linear-gradient-14"/>
    <linearGradient id="linear-gradient-18" x1="231.654" y1="1" x2="231.654" y2="0" xlink:href="#linear-gradient-14"/>
    <linearGradient id="linear-gradient-19" x1="34.318" y1="1" x2="34.318" y2="0" xlink:href="#linear-gradient-14"/>
    <linearGradient id="linear-gradient-20" x1="117.595" y1="1" x2="117.595" gradientUnits="objectBoundingBox">
      <stop offset="0.01" stop-color="#813321"/>
      <stop offset="0.99" stop-color="#7f3d2f"/>
    </linearGradient>
    <linearGradient id="linear-gradient-21" x1="30.653" y1="1" x2="30.653" y2="0" xlink:href="#linear-gradient-8"/>
    <linearGradient id="linear-gradient-22" x1="43.993" y1="0.5" x2="44.993" y2="0.5" gradientUnits="objectBoundingBox">
      <stop offset="0"/>
      <stop offset="0.99" stop-color="#ea6534"/>
    </linearGradient>
    <linearGradient id="linear-gradient-23" x1="38.058" y1="1.048" x2="38.279" y2="-0.039" xlink:href="#linear-gradient-3"/>
    <linearGradient id="linear-gradient-24" x1="75.434" y1="1.002" x2="75.598" y2="-0.033" xlink:href="#linear-gradient-3"/>
  </defs>
  <g id="info" transform="translate(-807.84 -110.587)">
    <g id="Group_5" data-name="Group 5" transform="translate(160 44.28)">
      <g id="layer1">
        <g id="Group_6" data-name="Group 6">
          <path id="Path_296" data-name="Path 296" d="M918.82,307.3l6.11-11.67,113.77-28.32s8.89-.1,10.93,1.6,22.76,29.38,29.39,31.76,31.6,6.63,31.6,6.63a37.219,37.219,0,0,1,2.72,14c-.17,7.39-41.8,451.12-41.8,451.12l-210,46.14s-17.2-145.26-4.52-195.93S918.82,307.3,918.82,307.3Z" fill="#540036" fill-rule="evenodd"/>
          <path id="Path_297" data-name="Path 297" d="M916,950.1c6-32.64,51-171.47,55.32-184.78l.32-1.05S987,771.38,996,779.73a34.468,34.468,0,0,1,2.69,2.73l.07.11a16.168,16.168,0,0,1,3.16,5.16c2.79,8.28,9.1,39,14.13,64.59,1.75,8.93,3.33,17.25,4.59,23.74,3.37,17.9,12.44,53.53,17.51,74h72.63c-2.51-13.86-6.92-52.37-11-90.5l-.5-4.73c-3.77-35-7.14-68.72-8.43-81.84l-.29-2.73c-.07-.79-.14-1.4-.18-1.87l-.11-1.11,2.73-7.46L1087.62,732l-2.48-12.91-25.28.89-8.5.33-81,2.86-49.6-8.67-31.1,18.57-.46,1.26c-.25.68-.58,1.58-1,2.72-1.26,3.38-3.16,8.76-5.49,15.43l-.32,1c-8.29,23.92-21.16,63.3-24.53,86.26-5.1,34.68-9.26,98.87-10.91,105-.4,1.46-1,3.34-1.73,5.39Z" fill-rule="evenodd" fill="url(#linear-gradient)"/>
          <path id="Path_298" data-name="Path 298" d="M916,950.1c6.3-34.29,55.64-185.83,55.64-185.83s26.43,12.27,30.2,23.46c2.79,8.28,9.1,39,14.13,64.59l1.47-4.3s32.09,9.79,49.31,23.38c12.42,9.81,19.19,54.56,22,78.7h22c-5.53-30.76-20.51-182.78-20.51-182.78l2.73-7.46L1087.62,732l-36.26-11.69-81,2.86-49.6-8.67-31.1,18.57s-26.68,72-31.77,106.63-9.26,98.87-10.91,105c-.4,1.46-1,3.34-1.73,5.39Z" fill="#900477" fill-rule="evenodd" opacity="0.4"/>
          <path id="Path_299" data-name="Path 299" d="M916,950.1c6-32.64,51-171.47,55.32-184.78l.32-1.05-13.13-10.18,3.91-13.27,55-3.94L996,779.73l2.69,2.73.07.11L1012,764.06l23.56-8.61L1033,835s44.4,4.23,66.71,24.64l-.5-4.73-8.4-81.91-.29-2.73-.18-1.87-.11-1.11,2.73-7.46L1087.62,732l-27.76-12-8.93-3.83L920.71,714.5l-31.1,18.57-.46,1.26-1,2.72-5.49,15.43-.32,1s-17.23,37.37-21.32,75.75c7.61,35.33,36.63,96.48,48.63,120.91Z" fill="#600456" fill-rule="evenodd" opacity="0.4"/>
          <path id="Path_300" data-name="Path 300" d="M714,522.37a28.467,28.467,0,0,0,3.48,6.5c.68,1,1.44,2.15,2.3,3.3,16,22.16,59.75,65.84,82.3,65.27,9.44-.22,19.55-5,29.2-12.66,17.82-14.1,34.18-38,42.1-61.08,12.2-35.54,7.21-114.8,7.21-114.8l-20.84-53.69s-1.61,2.66-4.26,7.32c-9.33,16.32-31.49,57-42.4,92.56,0,0-5.91-3.15-8.39-1.82s-7.49,10-7.49,10h0c-1.07-.61-18.4-10.4-27.11-21.84a9.15,9.15,0,0,1-.58-.72c-.43-.61-.89-1.18-1.29-1.79C760,427.69,753.58,419.73,744.87,426c0,0-5.78-8.14-8.68-7.46s-5.24,6.1-5.24,6.1,3.55,12.91,0,25-8.86,12.23-8.86,12.23L719.73,459s-4.77,10.37-5.6,12.73,3.73,5.28,3.73,5.28S709.5,508.42,714,522.37Z" fill-rule="evenodd" fill="url(#linear-gradient-2)"/>
          <path id="Path_301" data-name="Path 301" d="M719.8,532.17c16,22.16,59.75,65.84,82.3,65.27,26.87-.65,59.11-38.2,71.3-73.74s7.21-114.8,7.21-114.8l-20.84-53.69s-1.61,2.66-4.26,7.32l.25,3.19s8.29,54.75,3.77,93S826.24,517,821.47,516.28s-8.36-61.19-8.36-61.19L811,499.28s-7.71-34.57-6.24-46c-2.51,1.36-7.49,10-7.49,10h0l-23.63-28.15-3.48,6.31Z" fill="#900477" fill-rule="evenodd" opacity="0.4"/>
          <path id="Path_302" data-name="Path 302" d="M957.61,295.63s-29.1-32.33-29.27-39,70-38.7,87.14-38.9,21.92,3.74,22.94,5.27S1012.2,287.71,957.61,295.63Z" fill="#c72e4f" fill-rule="evenodd"/>
          <path id="Path_303" data-name="Path 303" d="M1014.92,221.34s2.94,38.08,9.06,53c0,0-35.78,31.92-56.45,29.2,0,0,1.64-25.14,0-42.13Z" fill="#862c4d"/>
          <path id="Path_304" data-name="Path 304" d="M717.5,528.87c.68,1,1.44,2.15,2.3,3.3,16,22.16,59.75,65.84,82.3,65.27,9.44-.22,19.55-5,29.2-12.66-13.06-33.89-20.19-88.48-20.19-88.48-2.37-15.64-6.39-43-6.39-43-2.51,1.36-7.49,10-7.49,10h0c-1.07-.61-18.4-10.4-27.11-21.84a9.146,9.146,0,0,1-.58-.72c-.43-.61-.89-1.18-1.29-1.79l-6.74,1.65Z" fill="#900477" fill-rule="evenodd" opacity="0.4"/>
          <path id="Path_305" data-name="Path 305" d="M916.51,187.05c-1.61,6.67-4.84,12.52-3.62,22.41,1.86,15.28,25.25,52.65,37.48,60.83a27.22,27.22,0,0,0,14.88,4,1.088,1.088,0,0,0,.36,0c7.06-.07,15.38-2.44,23.7-9.18,14-11.3,27.37-32.67,34-58.13.93-3.66,1.75-7.36,2.4-11.16,4.41-25.82,1.58-66.88-4.09-78.5-8.5-17.51-54.73-23.53-64.88-22.78-23.24,1.76-43.64,16.5-48.38,29.34a16.37,16.37,0,0,0-1,4.09c-1.36,13.59,10,42.57,10,52.54A28.544,28.544,0,0,1,916.51,187.05Z" fill="url(#linear-gradient-3)"/>
          <path id="Path_306" data-name="Path 306" d="M1019.92,173.07s7.45-15.72,19.52-19.87c0,0,9.93.85,13.82,7.32,5.77,9.62,2.13,29-6.84,39.32s-25.12,8.82-27.82,3.95S1019.92,173.07,1019.92,173.07Z" fill="url(#linear-gradient-4)"/>
          <path id="Path_307" data-name="Path 307" d="M856.58,650.8c2.26,9.51,37.48,31.24,37.48,31.24a36.076,36.076,0,0,0-.54,3.62c-.39,3.12-.61,7.68.54,10.9a.109.109,0,0,1,.07,0,2.1,2.1,0,0,1,.57.18c1.73.5,6.75,1.86,14.92,3.37l.61.11C925.76,703,952.34,706,988.88,704a312.637,312.637,0,0,0,35.79-4A336.311,336.311,0,0,0,1093,680.86h.08c2.94-1.22,4.52-1.94,4.52-1.94a17.089,17.089,0,0,0,0-12.23s23.34-19.94,24.24-31.27-17.9-96.94-27-154-3.62-133.7,21.52-156.44a122.135,122.135,0,0,0-8.14-9.14c-2.51-2.3-55.91-27.72-67.5-44.33a12.647,12.647,0,0,1-2-4.16c-3.84-16.06,3.19-46,3.19-46s-6.28-4.8-21.27-5.34l-1.9,5.34s13.74-1,16.64,1.55-42.17,55.77-76.85,61.65c0,0-23.85-12.88-27.87-28.3l5-2-3.41-4.81s-7.46,4.84-7.28,6.71,8.61,30.88,7.28,44.47c0,0-19.05,14.6-35.76,24.21-5.88,3.44-11.47,6.2-15.85,7.49-16.78,5-20.84,12.7-20.84,12.7v10.33c1,3.12,17.68,53.11,19.87,68.93C882,440.61,872.9,548,864.76,581.48S854.32,641.3,856.58,650.8Z" fill-rule="evenodd" fill="url(#radial-gradient)"/>
          <path id="Path_308" data-name="Path 308" d="M647.84,316.32s42.32,184.12,58,235.85l95.9,4.17L765.08,309.67Z" fill="#a91338" fill-rule="evenodd"/>
          <path id="Path_309" data-name="Path 309" d="M684.92,472.39s9.81-30.31,8.63-44.3-15.22-32.17-15.22-32.17l-12-1.87Z" fill="#900477" fill-rule="evenodd" opacity="0.4"/>
          <path id="Path_310" data-name="Path 310" d="M765.08,309.67h6.8l33.07,245.08-3.18,1.59Z" fill="#ff1538" fill-rule="evenodd"/>
          <path id="Path_311" data-name="Path 311" d="M729.69,311.68l-4.88-7.95-46.69,5.94v4.93Z" fill="#36224f" fill-rule="evenodd"/>
          <path id="Path_312" data-name="Path 312" d="M724.81,303.73h13.43l1.96,7.35-10.51.6Z" fill="#633961" fill-rule="evenodd"/>
          <path id="Path_313" data-name="Path 313" d="M655.35,407.54c1.18,2.37,7.46,2.37,7.46,2.37l1.36,16s.33,12.4,1.55,14.09c.93,1.36,14,1.65,21.73.86a22.18,22.18,0,0,0,4.77-.86s-.36-8.64-2.58-11.19l3.91-.68s1.21-7.89-1.19-14l-12.73-2.65s3.41-10.37.32-17.86h-.21l-.54-.07-.9-.11-1.86-.21-1.51-.18c-6.81-.83-18.32-2.12-19.15-1.51C654.6,392.33,654.13,405.14,655.35,407.54Z" fill="url(#linear-gradient-5)"/>
          <path id="Path_314" data-name="Path 314" d="M1033,327.67s-27.68,77.14-37.28,98.43-42.84,65.69-42.84,65.69,51.41-45.37,64.75-76.37S1033,327.67,1033,327.67Z" fill="#900477" fill-rule="evenodd" opacity="0.4"/>
          <path id="Path_315" data-name="Path 315" d="M1036.68,314.6l-71.83,13.07,75.89-56.2,4.75,5.32Z" fill="#3b0477" fill-rule="evenodd" opacity="0.61"/>
          <path id="Path_316" data-name="Path 316" d="M672,462.41c.83.47,3.8.43,6.64.18a20.558,20.558,0,0,0,5.38-1c1.68-.9.78-10.44-.69-12.34a1.71,1.71,0,0,0-.71-.54h-.11a.379.379,0,0,0-.11-.07,13.722,13.722,0,0,0-3.87-.9c-3.55-.47-7.75-.39-8.07.11C669.52,449.43,670.45,461.55,672,462.41Z" fill="url(#linear-gradient-6)"/>
          <path id="Path_317" data-name="Path 317" d="M930.21,740.82l4.76-16.62-4.76-8.04-6.8,8.36Z" fill="#3f428d" fill-rule="evenodd"/>
          <path id="Path_318" data-name="Path 318" d="M995.75,629.2S967.52,651,932.33,656,877,654,877,654l-3.89,13.72-15.68-11,37.28-204.55s22.17,112.77,22.62,127.94-44.63,17.23-45.76,28.56S916.61,676.17,995.75,629.2Z" fill="#7c0477" fill-rule="evenodd" opacity="0.55"/>
          <path id="Path_319" data-name="Path 319" d="M878.35,727.37s28.4,17.22,51.86,13.45c0,0-4.41-14.6-3.05-15.6s11.87-1.36,13.23-.68,13.27,20.73,21.74,23.09,66.6-3.4,84.6-8.82,22.77-15.56,25.14-16.46,27.87-7.35,27.87-7.35l-6.67-34.18h-.08a.22.22,0,0,1-.14,0c-2.11.65-19.4,6-42.57,11.3l-.21.07c-26.61,6.13-60.86,12.37-88.62,11.73-24.68-.58-40.92-2.19-51.22-3.73l-.61-.11c-9-1.43-13.37-2.8-14.92-3.37a3.853,3.853,0,0,1-.46-.14.13.13,0,0,0-.11,0,.109.109,0,0,0-.07,0l-7.75,15.21Z" fill="#84a2f1" fill-rule="evenodd"/>
          <path id="Path_320" data-name="Path 320" d="M894.06,696.56a.109.109,0,0,1,.07,0,2.1,2.1,0,0,1,.57.18c1.73.5,6.75,1.86,14.92,3.37l.61.11C925.76,703,952.34,706,988.88,704a312.637,312.637,0,0,0,35.79-4A336.311,336.311,0,0,0,1093,680.86h.08c2.94-1.22,4.52-1.94,4.52-1.94a17.089,17.089,0,0,0,0-12.23c-12.74,3.91-25.22,7.18-37.27,9.8C965.14,697.39,894.06,682,894.06,682a36.094,36.094,0,0,0-.54,3.62C893.13,688.78,892.91,693.34,894.06,696.56Z" fill-rule="evenodd" fill="url(#linear-gradient-7)"/>
          <path id="Path_321" data-name="Path 321" d="M856.58,650.8c2.26,9.51,37.48,31.24,37.48,31.24a36.076,36.076,0,0,0-.54,3.62c41.89,10.62,109.64,6.82,109.64,6.82L996,700.62c-47,6.6-97-3.09-101.57-4h-.14a.13.13,0,0,0-.11,0,.11.11,0,0,0-.07,0l-7.82,15.28.07-.07c.65-.64,6-6,11.52-7.78,5.88-1.87,30.12,2.08,30.12,2.08l.43,12,4-13.37c.75-3,9.93,2,9.93,2l-1.87,17.79c1.37.68,13.27,20.73,21.74,23.09l1.72-38.41s46.55-3.73,53.62,5.28,9.64,28.29,9.64,28.29l-2.44-42.85,25.4-7.68.21-.07,11.08-3.34-1-12.4-6.2-75.5L1041.89,291.7s-1.58,6.38-8.86,36-30.55,198.54-65.52,242.48S905.07,615,905.07,615s25.82,7.71,56.63-6.35,50.3-57.33,50.3-57.33,7.67,42.35,5.49,55.55-45.8,44.83-89.59,39.84-60.11-33.89-54.08-39.84,43.5-15.42,43.5-26.76-14.06-103.78-14.06-103.78l21.7,64.05s-10.69-103-11.73-128.11,11.73-100.34,11.73-100.34h7.39c12.37,12,32.52,15.74,32.52,15.74-23.34-9.65-32.63-27-32.63-27h-.07l-7.21,3-23.6,12.91-4.88,8.22-22.66,38.3-14-18.11v10.33c1,3.12,17.68,53.11,19.87,68.93C882,440.61,872.9,548,864.76,581.48S854.32,641.3,856.58,650.8Z" fill="#7c0477" fill-rule="evenodd" opacity="0.4"/>
          <path id="Path_322" data-name="Path 322" d="M1032.64,829.58l.1,1.51.11,1.36L1033,835c33.53,3.37,88.84-19.72,88.84-19.72l-4.81-38.74a27.193,27.193,0,0,0,7-4.94h.07c7.64-7,12.62-17.29,12.62-17.29s-.1-.82-.28-2.36c0-.36-.11-.72-.15-1.15s-.1-.93-.18-1.47a1.437,1.437,0,0,0-.07-.54c-.07-.68-.18-1.4-.25-2.19-2.8-24.28-11.47-99-14-122.22-3-27.87-41.93-194.13-36.51-245.34,5.41-51,23.06-69.44,24.38-69.44,1.15.15,3.59,11.8,3.59,11.8V303.71s-10.15,1-24-3.65a74.519,74.519,0,0,1-10.61-4.42,56.73,56.73,0,0,1-16.75-13.05,61.2,61.2,0,0,1-10.12-15.28H1038.7l8.14,4.52s-26.94,94.25-29.19,204.5C1015.64,577,1030.13,792.79,1032.64,829.58Z" fill-rule="evenodd" fill="url(#linear-gradient-8)"/>
          <path id="Path_323" data-name="Path 323" d="M1119.88,611.63h-3.94l-2.6,12.67s-61.16-42.13-76.11-53.69S1018,540.75,1018,540.75l-.53-36.06,95.86,69Z" fill="#630456" fill-rule="evenodd" opacity="0.4"/>
          <path id="Path_324" data-name="Path 324" d="M1076.65,364.26c3.5,6.47-13.42,31.7-18.93,31-10.87-1.32-21.12-36-19.27-41.91s13.79,3.29,19.23,4.65S1073.83,359.05,1076.65,364.26Z" fill="#ffded6" fill-rule="evenodd"/>
          <path id="Path_325" data-name="Path 325" d="M1062,365.41l-1.08,2h0c0,.91,0,2.22-.11,3.94s-.11,3.12-.11,4-.11,2.25-.32,4.65v.54a6.426,6.426,0,0,0,.06.8v.78a9,9,0,0,1-.18,1.61l-2.21-.42c.07-.34.14-.68.2-1a2.992,2.992,0,0,0,0-.89,11.923,11.923,0,0,1,0-3.09,3.84,3.84,0,0,1-2-1.43,12.4,12.4,0,0,1-.83-4.14c-.15-1.61-.22-3.06-.22-4.34a7,7,0,0,1,.45-2.84,2.43,2.43,0,0,1,2.41-1.41,5.93,5.93,0,0,1,1.41.18l.48-.47,1,1.07Zm-3.36,1.27v-.31a2.7,2.7,0,0,0-.63-.07c-.33,0-.53.28-.6.83v1.19c0,.66.1,2,.31,4.47.06.73.11,1.47.16,2.2a1.21,1.21,0,0,0,.53.88q.29-6.16.24-9.19Z" fill="#e2396d"/>
          <path id="Path_326" data-name="Path 326" d="M1032.64,829.58l.1,1.51.11,1.36L1033,835c5.2-42.82-5.2-244-5.2-244l5.2,10,28.33,196.61L1038.2,582.44c27.79,4.41,63.91,59.6,63.91,59.6l14.92,134.51,7-4.94h.07L1113.34,660.4s2.82-49,4.65-45.39c1.54,3.12,14.24,102.82,17.86,131.51-2.8-24.28-11.47-99-14-122.22-3-27.87-41.93-194.13-36.51-245.34,5.41-51,23.06-69.44,24.38-69.44,1.15.15,3.59,11.8,3.59,11.8V303.71s-19.69,8.36-27.87,48.42S1077.11,493,1077.11,493l-8.29-1.22s-10.18-59.46-5.59-106.69,26.07-85,26.07-85a74.523,74.523,0,0,1-10.61-4.42,56.732,56.732,0,0,1-16.75-13.05l-20,148-12.12,24.5s-2-20-1.94-53.08,21.81-133.09,21.81-133.09l.18-1.58H1038.7l8.14,4.52s-26.94,94.25-29.19,204.5C1015.64,577,1030.13,792.79,1032.64,829.58Z" fill="#630456" fill-rule="evenodd" opacity="0.4"/>
          <path id="Path_327" data-name="Path 327" d="M927.88,268.35c2.37,10.08,5.13,24,4.34,32.28,9.5,17.47,32.63,27,32.63,27,34.5-4.05,70-48.56,75.21-55.34.18-.21.36-.46.57-.71a.123.123,0,0,1,.08-.11h0a12.648,12.648,0,0,1-2-4.16c-.22-1-.43-2-.58-3.05-2.44-16.49,3.77-42.93,3.77-42.93s-6.28-4.8-21.27-5.34l-1.9,5.34s13.74-1,16.64,1.55-42.17,55.77-76.85,61.65h-.08c-1.39-.79-23.88-13.3-27.79-28.26l5-2-3.41-4.81s-7.46,4.84-7.28,6.71C925,256.88,926.37,261.82,927.88,268.35Z" fill-rule="evenodd" fill="url(#linear-gradient-9)"/>
          <path id="Path_328" data-name="Path 328" d="M847.54,818.57s12.09,10.51,22.85,16.72c4.23,2.43,8.25,4.19,11.22,4.41,0,0-19.68-173.58-16.31-209.27s59.64-326.72,59.64-326.72l6.7-7.35.69-.72-.26-3.94-8.53,3.94a132.455,132.455,0,0,1-12.41,13.52,48.445,48.445,0,0,1-9.79,7.46,38,38,0,0,1-17.68,4.52c-1.29,0-2-.07-2-.07s-10.14,43.18-6.09,85.21-26.65,219.13-28,246.32S847.54,818.57,847.54,818.57Z" fill-rule="evenodd" fill="url(#linear-gradient-10)"/>
          <path id="Path_329" data-name="Path 329" d="M958.43,284.49l-7.16,4.8,14,22.6-2.66,10.37,2.26,5.41-2.26,27.53S950.27,469.87,946.7,482.73c-2.92,10.47-10.55,112.64-18.34,123.48l7.44,10s-6.9,19.79-12.25,29.92,14.58,40.45,14.58,40.45l-2.51,16.89-3.3-.29,4.25-16.45s-17-31-17-36.61,11.49-32.79,11.49-32.79l-5.42-9.56s8.65-59.88,16.62-109.19,20.06-170.91,20.06-170.91l-2.5-6.88s3.39-8.48,3.44-9.54-15.34-20.76-14.08-23.05c.41-.76,9.26-3.71,9.26-3.71Z" fill="#902377" fill-rule="evenodd" opacity="0.86"/>
          <path id="Path_330" data-name="Path 330" d="M1023.63,512.87c6.82,20.37,15,16,15,16s1.94,11,6,19.58,99.66,64.34,120.5,50.28a33.861,33.861,0,0,0,8.46-9c17.72-25.71,32.17-91,13.74-145.46-21.27-63-70.9-119.29-70.9-119.29-40.53,37-23.53,150.78-23.53,150.78-8.39-1.37-22.48-16.39-28.94-15.39s-15,14.45-15,14.45-12.58-10.5-14.45-9.82a2,2,0,0,0-.61.39c-1.68,1.58-3.44,6.74-3.44,6.74C1036.55,508.1,1023.63,512.87,1023.63,512.87Z" fill-rule="evenodd" fill="url(#linear-gradient-11)"/>
          <path id="Path_331" data-name="Path 331" d="M907.84,137.73s10-5.14,24.48,23.13c0,0-12.24-31.49-25.07-31.77a14.12,14.12,0,0,0,.59,8.64Z" fill="#7f394e"/>
          <path id="Path_332" data-name="Path 332" d="M983.39,173.6s-10.93-19.19-15.86-20.33-8.33,10.88-8.33,15.41C959.2,168.68,965.11,165.05,983.39,173.6Z" fill="#de676c"/>
          <path id="Path_333" data-name="Path 333" d="M931,173.6s-7.33-16.7-11.42-18.17-4.57,12-3.75,15.84C915.83,171.27,922.39,168.11,931,173.6Z" fill="#de676c"/>
          <path id="Path_334" data-name="Path 334" d="M983.39,173.6c1.86,3.74-8.62,9.69-14.45,10.37s-10.2-3.63-9.74-15.29c0,0,3.25-3,12.19-.57S983.39,173.6,983.39,173.6Z" fill="url(#linear-gradient-12)"/>
          <path id="Path_335" data-name="Path 335" d="M931,173.6c1.71,1.5-2.75,10.2-6.15,11.64s-8.69-9.08-9-14C915.83,171.27,923,166.55,931,173.6Z" fill="url(#linear-gradient-13)"/>
          <path id="Path_336" data-name="Path 336" d="M992,151.12s-13.25-8.83-24.51-10.64c-8.53-1.37-11,1.58-11,1.58s-.51-8.79,6.34-8.61S983,142.4,992,151.12Z" fill="#7f394e"/>
          <path id="Path_337" data-name="Path 337" d="M931.38,174.2s-7.35-6-15.42-1.92c0,0-3.13-1.27-3.21-1.69S923.37,165.36,931.38,174.2Z" fill="#522430"/>
          <path id="Path_338" data-name="Path 338" d="M983.39,173.6a32.41,32.41,0,0,0-24.23-3.88s-3.56-1-3.9-1.81S968.11,162.14,983.39,173.6Z" fill="#522430"/>
          <path id="Path_339" data-name="Path 339" d="M959.2,170.63s4.64-1.38,7.7.92,4.51,10.26,3.53,12.15a7.11,7.11,0,0,1-8.72-2.76,15.54,15.54,0,0,1-2.51-10.31Z" fill="#522430"/>
          <path id="Path_340" data-name="Path 340" d="M916.07,172.87a7.17,7.17,0,0,1,6,1.33c3.16,2.23,4,10.25,4,10.25s-2.15,2.57-5.22-1.1C917.47,179.3,916.07,172.87,916.07,172.87Z" fill="#522430"/>
          <path id="Path_341" data-name="Path 341" d="M967.87,175.6a1.63,1.63,0,1,0,1.63-1.6,1.63,1.63,0,0,0-1.63,1.6Z" fill="#fff"/>
          <path id="Path_342" data-name="Path 342" d="M922,175.6a1.63,1.63,0,1,0,1.6-1.6,1.63,1.63,0,0,0-1.6,1.6Z" fill="#fff"/>
          <path id="Path_343" data-name="Path 343" d="M982.29,177.23s-6.78,7.13-12.22,8.49-7.48-3.85-7.48-3.85,1.09,2.19,6.35,2.1S982.29,177.23,982.29,177.23Z" fill="#d25d6c"/>
          <path id="Path_344" data-name="Path 344" d="M930.06,179s-3.29,7.09-6.46,7.94-5.41-7.94-5.41-7.94,2.47,6.15,5.71,6.32S930.06,179,930.06,179Z" fill="#d25d6c"/>
          <path id="Path_345" data-name="Path 345" d="M930.06,193.25s-7.46,12.44-8.56,15,9.56,12.5,15.16,12.57,9.32-4.08,11.53-4.78,4,0,4.72-.21,8.36-6.2,4.57-12.19c0,0,.68,4.08-2,5.76s-11.28-1.76-19.53-.71-12.54,2.39-13.51,1S930.06,193.25,930.06,193.25Z" opacity="0.58" fill="url(#linear-gradient-14)"/>
          <path id="Path_346" data-name="Path 346" d="M952.91,215.8a16.55,16.55,0,0,0-9.32,2.95S949.57,212.67,952.91,215.8Z" fill="#a64a4c" fill-rule="evenodd"/>
          <path id="Path_347" data-name="Path 347" d="M956,201.08s3.83,9.12-2.16,14.1C953.82,215.18,963.69,210.14,956,201.08Z" fill-rule="evenodd" opacity="0.58" fill="url(#linear-gradient-15)"/>
          <path id="Path_348" data-name="Path 348" d="M950.25,209.6A58.8,58.8,0,0,0,936,211c-8.29,1.74-12.52.09-13.49-1.33,0,0,3.76,1.08,11.93-.76A32.77,32.77,0,0,1,950.25,209.6Z" fill-rule="evenodd" opacity="0.3" fill="url(#linear-gradient-16)"/>
          <path id="Path_349" data-name="Path 349" d="M946.89,205.65c1.54-1-2.27-2.76-5.14-1.78s-3.63,1.74-3.5,2.3S944.78,207,946.89,205.65Z" fill="#fff" fill-rule="evenodd"/>
          <path id="Path_350" data-name="Path 350" d="M1021.6,188.38s17.27-29.56,24.46-28.71,7.73,15.28,6.8,23.33-9.18,15.06-9.18,15.06,7-8,7.65-15.71-2.55-14.33-4.33-15.19-9.51,3.64-9.6,5.25,3.48,7.62,2.89,13.54-9.77,10.5-11.22,9.74-.09-9-1.23-9.74S1021.6,188.38,1021.6,188.38Z" fill-rule="evenodd" opacity="0.58" fill="url(#linear-gradient-17)"/>
          <path id="Path_351" data-name="Path 351" d="M1033.72,170.22s6.31,8.58,5.72,15.15-7.71,9.68-9.35,9.21-.85-8.15-1.78-9.26-5.24.63-5.24.63S1031,173.58,1033.72,170.22Z" fill-rule="evenodd" opacity="0.58" fill="url(#linear-gradient-18)"/>
          <path id="Path_352" data-name="Path 352" d="M969.31,219.57s-2.58,5.1-10.57,9.51-25,1.87-27.55,0a30.891,30.891,0,0,0,3.75,3c.94.42,13.12,3.82,23.8-.68C966.11,228.27,969.31,219.57,969.31,219.57Z" fill="#d25d6c"/>
          <path id="Path_353" data-name="Path 353" d="M964.91,216.83s6.62,1.89,7.53,4C972.44,220.8,969.55,211.81,964.91,216.83Z" fill="#d25d6c"/>
          <path id="Path_354" data-name="Path 354" d="M917.3,180.56a28.555,28.555,0,0,1-.79,6.49c.47.32,4.23,3,8.43,2.9,4.48-.1,11.62-10.76,10.69-18.39S928.34,152,928.34,152s12.92-5.92,23.42-2.37c0,0,1.76,32.39,7.43,37.37s27.86.68,34.89-9.79c0,0,11.77,2.23,15.85,8.11,0,0-6.56,6.7-12.22,21.7s-7.61,41.85-12.7,55.51c-3.48,9.36-13.49,11.41-19.4,11.8,7.06-.07,15.38-2.44,23.7-9.18,14-11.3,27.37-32.67,34-58.13,0,0-8.36-4.42-5.63-26.65a177.933,177.933,0,0,0,0-41.78l-29.56-15.46-79.76.79a16.37,16.37,0,0,0-1,4.09C906,141.61,917.3,170.59,917.3,180.56Z" fill-rule="evenodd" opacity="0.58" fill="url(#linear-gradient-19)"/>
          <path id="Path_355" data-name="Path 355" d="M1030.77,134.59s5.82,7.24,6.08,9.51-9,17.35-9,17.35a87.612,87.612,0,0,0-10.18,18.93s-7.5-41.72-13.39-51.91C1004.27,128.47,1019.22,128.24,1030.77,134.59Z" fill="url(#linear-gradient-20)"/>
          <path id="Path_356" data-name="Path 356" d="M905.5,126.44s60.93-5.67,87.22-1.36a238.9,238.9,0,0,1,30,6.7c.68.22,1.32.43,1.93.65,2.8.86,4.6,1.54,5.46,1.9a1,1,0,0,0,.18.07,4.227,4.227,0,0,1,.46.18s6.35-19.26,4.09-28.3-36.51-36.15-59.35-39.66c-19.26-2.94-55.74,15.64-60.72,21.77S905.5,126.44,905.5,126.44Z" fill-rule="evenodd" fill="url(#linear-gradient-21)"/>
          <path id="Path_357" data-name="Path 357" d="M1036.85,144.1s-4.72.9-15.25-1.81-17.33-13.82-17.33-13.82l13.39,51.91S1034.1,152.71,1036.85,144.1Z" fill="#680463" fill-rule="evenodd" opacity="0.4"/>
          <path id="Path_358" data-name="Path 358" d="M1023.98,131.87l-47.34,3.35v-7.28l38.28,1.21Z" fill="#a91338" fill-rule="evenodd"/>
          <path id="Path_359" data-name="Path 359" d="M865.42,134.59l41.79-16.09s41.79-6.56,107.71,10.65l-38.28-1.22S914.46,114.43,865.42,134.59Z" fill="#ff5c5e" fill-rule="evenodd"/>
          <path id="Path_360" data-name="Path 360" d="M865.42,134.59l4.53,7.47s15.86-13.59,49.38-13.59a249.768,249.768,0,0,1,57.31,6.75l1.13-7.29S903.93,113.52,865.42,134.59Z" fill="#ff1538" fill-rule="evenodd"/>
          <path id="Path_361" data-name="Path 361" d="M907.22,118.51c48.7-6.2,96.94,7.18,115.52,13.27.68.22,1.32.43,1.93.65,2.69.9,4.56,1.58,5.46,1.9a1,1,0,0,0,.18.07,4.225,4.225,0,0,1,.46.18s6.35-19.26,4.09-28.3-36.51-36.15-59.35-39.66c0,0,27,22.45,28.76,30.59s-8.39,25.93-8.39,25.93C942,108.94,907.22,118.51,907.22,118.51Z" fill="#900477" fill-rule="evenodd" opacity="0.4"/>
          <path id="Path_362" data-name="Path 362" d="M914.79,88.39c46.87-19.26,89.48,8.82,89.48,8.82-4.77-12.7-28.76-30.59-28.76-30.59C956.25,63.68,919.77,82.26,914.79,88.39Z" fill-rule="evenodd" fill="url(#linear-gradient-22)"/>
          <path id="Path_363" data-name="Path 363" d="M921.56,101.39c.77,7.56,10.31,12.78,21.31,11.66s19.29-8.15,18.52-15.71-10.31-12.79-21.31-11.67S920.79,93.83,921.56,101.39Z" fill="#ffded6" fill-rule="evenodd"/>
          <path id="Path_364" data-name="Path 364" d="M942.9,90.64l-1.08,2h0c0,.9,0,2.22-.12,3.93s-.11,3.13-.11,4-.1,2.25-.31,4.65v.54a4.164,4.164,0,0,0,.06.81,6.282,6.282,0,0,1,.06.78,9,9,0,0,1-.18,1.61l-2.22-.43c.08-.34.14-.68.2-1a2.51,2.51,0,0,0,0-.9,12.452,12.452,0,0,1,0-3.09,3.87,3.87,0,0,1-2-1.43,12.333,12.333,0,0,1-.83-4.14c-.14-1.61-.22-3-.22-4.34a7,7,0,0,1,.45-2.84,2.44,2.44,0,0,1,2.42-1.41,5.93,5.93,0,0,1,1.41.18l.47-.47,1.05,1.08Zm-3.37,1.27V91.6a2.561,2.561,0,0,0-.62-.07c-.33,0-.53.28-.61.83v1.19c0,.66.11,2,.31,4.48.07.73.12,1.46.16,2.19a1.15,1.15,0,0,0,.54.88q.27-6.16.22-9.19Z" fill="#e2396d"/>
          <path id="Path_365" data-name="Path 365" d="M697.52,420.65c5.91,21.45,19.19,34,29.66,27.91s14.17-28.3,8.26-49.75-19.18-33.95-29.66-27.92S691.61,399.2,697.52,420.65Z" fill="#ffded6" fill-rule="evenodd"/>
          <g id="Group_3" data-name="Group 3">
            <path id="Path_366" data-name="Path 366" d="M714.5,386.56l-.21,5.05h0c.39,2.24.93,5.49,1.6,9.73q1.06,6.7,1.61,9.8.45,2.59,1.71,11.55c.07.48.14.92.21,1.33s.24,1.21.41,2,.3,1.4.39,1.92c.19,1.07.36,2.4.52,4l-2.36-.67q-.12-1.29-.24-2.52a15.935,15.935,0,0,0-.42-2.21q-.7-2.89-1.36-7.62a7.269,7.269,0,0,1-2.58-3.19,70.483,70.483,0,0,1-2.61-10.07q-1.27-5.94-2.11-10.69a43.006,43.006,0,0,1-.79-7.09q0-3.6,1.77-3.9a2.72,2.72,0,0,1,1.47.2l.25-1.25,1.51,2.48Zm-2.76,3.73-.14-.77a1.18,1.18,0,0,0-.64-.06c-.32.06-.4.78-.23,2.15,0,.34.2,1.32.49,2.94q.36,2,2.25,11,.57,2.7,1.11,5.4a4.619,4.619,0,0,0,.91,2.06Q713.09,397.76,711.74,390.29Z" fill="#e2396d"/>
          </g>
          <path id="Path_367" data-name="Path 367" d="M1010.18,239.47s-14.91,19.58-27.32,27-27.61,6.2-27.61,6.2,7.79,4,23.54-.85S1010.18,239.47,1010.18,239.47Z" fill="#c95e4c" fill-rule="evenodd"/>
          <path id="Path_368" data-name="Path 368" d="M924.94,256.16s11.9,21,33.49,28.33c-1.39-.79-23.88-13.3-27.79-28.26l5-2-3.41-4.81S924.76,254.29,924.94,256.16Z" fill="#903192" fill-rule="evenodd" opacity="0.4"/>
          <path id="Path_369" data-name="Path 369" d="M932.22,300.63c9.5,17.47,32.63,27,32.63,27,34.5-4.05,70-48.56,75.21-55.34-30.63,37.44-75.13,50.93-75.13,50.93-10.84-3.91-30.49-22.09-30.49-22.09l3.8-2.87,27,13.59L952.9,291.64l-25-23.33C930.25,278.43,933,292.38,932.22,300.63Z" fill="#903192" fill-rule="evenodd" opacity="0.4"/>
          <path id="Path_370" data-name="Path 370" d="M975.58,307.19h0s52.57-21.05,62.54-42.93c-2.44-16.49,3.77-42.93,3.77-42.93s-10.76,17.33-19.94,33S975.58,307.19,975.58,307.19Z" fill="#903192" fill-rule="evenodd" opacity="0.4"/>
          <path id="Path_371" data-name="Path 371" d="M1168.38,526.43c0-2-33.64-64.2-41.78-66.1s-21.77,4.27-23.46,2.62-8.82-50-5.09-82.95,18.33-55.06,18.33-55.06c-40.53,37-23.53,150.78-23.53,150.78,3.7,1.22,23.89-4,39.81,5.52S1168.38,528.47,1168.38,526.43Z" fill="#900477" fill-rule="evenodd" opacity="0.4"/>
          <path id="Path_372" data-name="Path 372" d="M1023.63,512.87c6.82,20.37,15,16,15,16s1.94,11,6,19.58,99.66,64.34,120.5,50.28a33.861,33.861,0,0,0,8.46-9,34.46,34.46,0,0,1-19.43,5.06c-27.51-1-82.92-51.83-82.92-51.83,5.13-9,6.13-21.23,5.92-23.27s19.58,2.37,19.58,2.37c-3.41-18-32.78-61.69-32.78-61.69-6.46,1-15,14.45-15,14.45,4.59,13.27,1.65,37,1.65,37l-11.33-11.19c1.33-14.23-3.33-29.51-5.38-35.25-1.68,1.58-3.44,6.74-3.44,6.74C1036.55,508.1,1023.63,512.87,1023.63,512.87Z" fill="#900477" fill-rule="evenodd" opacity="0.4"/>
          <path id="Path_373" data-name="Path 373" d="M870.39,835.29c4.23,2.43,8.25,4.19,11.22,4.41,0,0-19.68-173.58-16.31-209.27s59.64-326.72,59.64-326.72l6.7-7.35.43-4.66-7.13,3.94S859.52,612.07,857.48,642,870.39,835.29,870.39,835.29Z" fill="#630456" fill-rule="evenodd" opacity="0.4"/>
          <path id="Path_374" data-name="Path 374" d="M883.66,321.14l6,36.91,21.52-48.89a48.447,48.447,0,0,1-9.79,7.46,38,38,0,0,1-17.73,4.52Z" fill="#630456" fill-rule="evenodd" opacity="0.4"/>
          <path id="Path_375" data-name="Path 375" d="M930.37,404.15c1.69,4,10.52,5.28,20.48,1.53,0,0,9.51,4,11.57,9.64.31.85.78,2.17,1.25,3.83v.07c.44,1.39.95,3,1.45,4.8,1.49,5.08,3.22,11.28,4.54,16.45a74.518,74.518,0,0,1,2.2,10.26c0,3.39-1.29,4.33-1.29,4.33s-4.5-3.69-7.54-11.54S960,429.1,957,426.05s-18.11-9-21.8-7.68-4.46,5.45-3.35,8.8c.48,1.42,2.54,3.35,5.32,5.86v.07c3.79,3.41,8.87,8,12.93,14.11,7,10.6,9,27.89,12.19,34.8s40.24,5.85,63.4,29.78c0,0,12.49-7.92,4.9-37.47,0,0-6.73-4.06-6.43-5.34s-.57-25.83-3-38.05c-.07-.34-.14-.68-.2-1-.17-.74-.34-1.49-.51-2.2a7.9,7.9,0,0,0-.24-1l-.3-1.12a1.337,1.337,0,0,0-.1-.37h0a103.693,103.693,0,0,0-6.06-16.76l-13.61-2.88L990,402H976.4l-4.17,3.66-.1-.14c-1-1.18-8.26-10.15-10.93-12.35h0a2.888,2.888,0,0,0-.48-.34c-2.23-1.29-20.75,1.86-23,2.1s-5.45-.65-6.26-.24S928.67,400.16,930.37,404.15Z" fill="url(#linear-gradient-23)"/>
          <path id="Path_376" data-name="Path 376" d="M962.05,423.75c-.54,4.71,4.26,12.15,7.65,16.72,1.76,2.41,3.15,4,3.15,4l3.55.75a32.43,32.43,0,0,0,8.33,3.08l3.52-1.39,1.08-18.18,5.89,18.08s6.4.64,7.69-.31-.75-13.16-.75-13.16l-.44-3,.2-.51a141.442,141.442,0,0,1,6.37-14.35v-.07c1.9-3.52,3.83-6.43,5.42-7l-13.61-2.88L990,402H976.4c-.61.68-8.33,9.14-12.22,16.15h0c-.17.34-.34.65-.48.95a14.855,14.855,0,0,0-1.55,4.3C962.08,423.65,962.05,423.75,962.05,423.75Z" fill="url(#linear-gradient-24)"/>
          <path id="Path_377" data-name="Path 377" d="M954.08,407.32l-20.83,31.56-9.62,1.6-2.21-1.59,1.41-9.95,17.16-21s6.63.18,10.85-2.22Z" fill="#ffded6" fill-rule="evenodd"/>
          <path id="Path_378" data-name="Path 378" d="M962,394l21.1-34.31a5.55,5.55,0,0,0-5.61-4.33l-29,38.08s11.07-.72,11.63-.64A7.2,7.2,0,0,1,962,394Z" fill="#ffded6" fill-rule="evenodd"/>
          <path id="Path_379" data-name="Path 379" d="M964.15,418.17a55.25,55.25,0,0,1,8.05-12.49l-.1-.14c-.81-1.22-6.77-9.58-10.93-12.35h0a2.888,2.888,0,0,0-.48-.34s-2.91,10.83-9.81,12.83c0,0,9.51,4,11.57,9.64.31.85.78,2.17,1.25,3.83a14.856,14.856,0,0,0-1.55,4.3,33.538,33.538,0,0,1,1.59-4.23c.13-.34.27-.65.44-1Z" fill="#bf4f9f" fill-rule="evenodd" opacity="0.58"/>
          <path id="Path_380" data-name="Path 380" d="M937.14,433v.07c3.79,3.41,8.87,8,12.93,14.11,7,10.6,9,27.89,12.19,34.8s40.24,5.85,63.4,29.78c0,0,12.49-7.92,4.9-37.47,0,0-6.73-4.06-6.43-5.34s-.57-25.83-3-38.05c-.07-.34-.14-.68-.2-1-.17-.74-.34-1.49-.51-2.2a7.92,7.92,0,0,0-.24-1l-.3-1.12a1.337,1.337,0,0,0-.1-.37c.13,1.35,3.18,34.08-.44,43-3.69,9.14-24.24,12-28.06,11.54s-7.69-3.21-8.2-4.33,21.33-23.56,21.84-27.11,4.8-17.77,4.8-17.77l5.11-5.38h-6.39l-.14-9.72v.07l-6.37,14.35-.2.51s-8.22,2.47-11.44-.88v-4.33l7.92-19.5-12.52,20.65s-8.09.27-11.21-.78l6.9-16.53-10.66,15.5-5.56-.48-3.11-.27c-.54,4.71,4.26,12.15,7.65,16.72a74.51,74.51,0,0,1,2.2,10.26c0,3.39-1.29,4.33-1.29,4.33s-4.5-3.69-7.54-11.54S960,429.1,957,426.05c0,0,1.93,6.57,0,9.62s-10.73,1.76-10.73,1.76Z" fill="#bf4f9f" fill-rule="evenodd" opacity="0.58"/>
          <path id="Path_381" data-name="Path 381" d="M970.61,455.06l31.11-4.08,3.73-5.17-2.55-8.59s.76,8.15,0,9.31-7.69.31-7.69.31l-5.3-16.28-1.67,16.38s-.74,1.91-3.52,1.39-11.88-3.83-11.88-3.83l-3.79-4.91S972.11,451.1,970.61,455.06Z" fill="#bf4f9f" fill-rule="evenodd" opacity="0.58"/>
          <path id="Path_382" data-name="Path 382" d="M938.74,430.56a19,19,0,0,0-11.13-7.47L940,407.91s8.06-1.58,11.54,3.28Z" fill="#ab1340" fill-rule="evenodd"/>
          <path id="Path_383" data-name="Path 383" d="M978.8,366.69s-2.08-5-5.56-5.75l2.21-2.9a6.37,6.37,0,0,1,5.91,4.49Z" fill="#ab1340" fill-rule="evenodd"/>
          <path id="Path_384" data-name="Path 384" d="M948.48,415.81s-6.9-5.68-9.33-6.88l.84-1a57.711,57.711,0,0,0,10.86-2.23l3.23,1.64Z" fill="#7a2461" fill-rule="evenodd" opacity="0.58"/>
          <path id="Path_385" data-name="Path 385" d="M933.25,438.88a14,14,0,0,0-10.42-9.94l-1.41,9.95,2.21,1.59Z" fill="#b586a8" fill-rule="evenodd"/>
          <path id="Path_386" data-name="Path 386" d="M1092.85,475.72s-3.47-28.61-3.45-45.16c0,0,10.95,32.3,13.74,32.39s16.34-3.84,23.46-2.62S1166.52,524,1166.52,524s-23.92-40.84-43.31-46.7S1092.85,475.72,1092.85,475.72Z" fill="#900477" fill-rule="evenodd" opacity="0.4"/>
          <path id="Path_387" data-name="Path 387" d="M1049,474.78s5.86,24.06,1.65,37-12,17-12,17l6,19.58s29.26-2.94,32.53-28.76-13.2-59.32-13.2-59.32S1058.63,459.68,1049,474.78Z" fill="#900477" fill-rule="evenodd" opacity="0.4"/>
          <path id="Path_388" data-name="Path 388" d="M666.9,427.44l19.47,1.26,1.08,12.12a22.182,22.182,0,0,0,4.77-.86s-.36-8.64-2.58-11.19l3.91-.68s1.21-7.89-1.19-14l-12.73-2.65s3.41-10.37.32-17.86h-.21l-.54-.07-.9-.11-1.86-.21-1.51-.18-.68-.07L672,410.59l-9.18-.68,24.67,4.77v12.76Z" fill="#bf4f9f" fill-rule="evenodd" opacity="0.58"/>
          <path id="Path_389" data-name="Path 389" d="M678.63,462.59a20.558,20.558,0,0,0,5.38-1c1.68-.9.78-10.44-.69-12.34a1.71,1.71,0,0,0-.71-.54h-.11a.379.379,0,0,0-.11-.07,7,7,0,0,0-3.58-1.22c-.11,0-.22.14-.29.32C677.66,449.5,678.3,458.57,678.63,462.59Z" fill="#bf4f9f" fill-rule="evenodd" opacity="0.58"/>
          <path id="Path_390" data-name="Path 390" d="M998.36,494.5s-11.07,39.62-22.4,62.29-38.21,43.09-38.21,43.09,63.71-11.85,79.73-95.19Z" fill="#7c0477" fill-rule="evenodd" opacity="0.4"/>
          <path id="Path_391" data-name="Path 391" d="M773.09,318.69l7.85,6.25,26.72,218-3.74,4.25Z" fill="#c5ccff" fill-rule="evenodd"/>
          <path id="Path_392" data-name="Path 392" d="M1102.05,822.53c9.35-3.11,16.28-5.88,18.82-6.86Z" fill="#4d0e53" opacity="0.51"/>
          <path id="Path_393" data-name="Path 393" d="M655.8,391.46c-1.21.86-1.67,13.68-.46,16.1s7.45,2.37,7.45,2.37l1.38,15.92s.35,12.41,1.56,14.08c.58.87,5.83,1.33,11.6,1.33.46,2,1,4,1.44,6.12-.06,0-.17.11-.23.29-3.58-.47-7.79-.41-8.08.11-.92,1.68,0,13.79,1.56,14.6.81.52,3.75.46,6.58.23,1.38-.17,2.71-.34,3.75-.57.87,3.46,1.73,6.86,2.54,10.21l.06.12c8.19,33.23,15.92,63.3,20.94,79.8l32,1.39c20,21.18,47.73,44.32,64.17,43.86a30.151,30.151,0,0,0,4.62-.47c.35-.05.75-.17,1.09-.23a36.352,36.352,0,0,0,4.22-1.09c.17-.06.34-.06.46-.12a49.041,49.041,0,0,0,4.9-2l.7-.35a45.244,45.244,0,0,0,4.27-2.3c.29-.18.57-.29.81-.47,1.61-1,3.23-2,4.78-3.11l.7-.52c.86-.69,1.79-1.33,2.65-2a6.717,6.717,0,0,0,.69-.64c1.79-1.44,3.58-2.94,5.31-4.55.23-.24.52-.47.75-.7,2-1.84,3.93-3.86,5.83-5.94l1.39-1.56c1.44-1.62,2.88-3.35,4.27-5.08.52-.63,1-1.32,1.56-2,1.44-1.85,2.82-3.75,4.21-5.71a17.6,17.6,0,0,0,1-1.45q2.5-3.72,4.84-7.55a8.5,8.5,0,0,0,.41-.76c-6.7,47.73-13.45,91.3-14,103.7-1.39,27.19,0,166,0,166s5.48,4.79,12.4,9.81c-.11.52-.23,1-.34,1.44a13.171,13.171,0,0,1-.29,1.39c-.18,1.1-.41,2.13-.58,3.17a11.742,11.742,0,0,0-.23,1.27c-.29,1.45-.52,2.77-.69,4-5.08,34.68-9.24,98.91-10.91,105-.4,1.47-1,3.35-1.72,5.4h62.07c9.81-28.29,28.58-74.2,30.89-79.79a1.4,1.4,0,0,0,.17-.51c5.89-19.22,12.06-39,17.48-56.1,1.91-6.06,3.76-11.77,5.43-17l40.63-8.94c2.76,8.31,9.11,39,14.13,64.57,1.73,8.94,3.29,17.25,4.56,23.78,3.37,17.87,12.44,53.49,17.51,74h58.65c-.52-36.46.88-110.43.88-110.43l.06.12-1.56-15.29c2.08-.64,4-1.33,5.94-2-3.63-60.82,0-183,0-183l15.41,136.71a25.58,25.58,0,0,0,6.64-4.67s-12.52-92.28-10.73-113.46,6.52-46.51,6.52-46.51l-3.7-21.52c21.07,8.89,40.74,14.14,48.88,8.6,35.66-127.42-65.44-275.5-65.44-275.5l-1.44-4.5a99.792,99.792,0,0,1-23.14,0c-12.58-1.5-31.45-20.66-31.45-20.66l-5.14,7.62-3.12-27.87L1023.05,281l-3.11-21.47,5.59-13.16-11.42,3.06-24.82,15.7s4-41.15,7.39-55.17,21-29.6,21-29.6L1027.84,145l-10.38-4.27,3.11-9.12-8.13-2.77,2.48-29.49c-12-17.42-39.42-32.72-39.42-32.72-19.27-2.94-55.74,15.64-60.71,21.76-3.4,4.16-6.52,20.49-8.13,30.35l-23.55,9.06a76.832,76.832,0,0,0-17.71,6.81l4.56,7.45s12.06-10.27,37.27-12.93a14.477,14.477,0,0,0-.4,3.52,12.09,12.09,0,0,0,1,5.08c1.44,9.93,5.25,22.28,7.56,31.8a6.21,6.21,0,0,0-2.66,1.09c.06.41,3.18,1.68,3.18,1.68H916a2.35,2.35,0,0,0,.11.57h-.06s.06.18.12.41a.33.33,0,0,0,.06.23,5.359,5.359,0,0,0,.29,1.15,32.862,32.862,0,0,1,.75,5.89,29.436,29.436,0,0,1-.75,6.52c-1.62,6.64-4.85,12.52-3.64,22.39,1.15,9.35,10.33,26.89,20.08,41l-.75-1s-7.44,4.85-7.27,6.7a4.931,4.931,0,0,0,.12.57c.34,1.62,1.61,6.52,3,12.76.12.52.29,1.09.41,1.67.17.75.34,1.5.46,2.31a8.53,8.53,0,0,1,.29,1.32c.17.81.35,1.62.52,2.43.11.63.29,1.33.4,2s.23,1.21.35,1.79c.23,1.32.46,2.65.63,4a3.282,3.282,0,0,1,.12.81c.17,1.09.35,2.19.46,3.23.06.35.06.63.12,1a16.881,16.881,0,0,0,.17,1.73l-8.48,3.92a134.7,134.7,0,0,1-12.41,13.51,48.591,48.591,0,0,1-9.81,7.44,37.871,37.871,0,0,1-17.72,4.56,15.418,15.418,0,0,1-2-.11s-1,4.38-2.31,11.71c-15.58,5-19.5,12.23-19.5,12.23v10.22s-1.62,2.65-4.27,7.33c-9.35,16.27-31.51,57-42.42,92.56,0,0-5.94-3.17-8.36-1.85-2,1.1-5.66,6.81-7,9.06l-16.85-137.4-7.84-6.23-1.22-9h-6.7l-117.26,6.63s7.68,33.36,17.66,75.6C660.65,391.4,656.27,391.11,655.8,391.46Z" fill="#4d0e53" opacity="0.51"/>
        </g>
      </g>
    </g>
  </g>
</svg>
